<?xml version="1.0" encoding="UTF-8" standalone="no"?>
<!DOCTYPE svg PUBLIC "-//W3C//DTD SVG 1.1//EN" "http://www.w3.org/Graphics/SVG/1.1/DTD/svg11.dtd">
<svg width="100%" height="100%" viewBox="0 0 1210 707" version="1.1" xmlns="http://www.w3.org/2000/svg" xmlns:xlink="http://www.w3.org/1999/xlink" xml:space="preserve" xmlns:serif="http://www.serif.com/" style="fill-rule:evenodd;clip-rule:evenodd;stroke-linejoin:round;stroke-miterlimit:2;">
    <g transform="matrix(1,0,0,1,-439.664,-2352.47)">
        <g transform="matrix(2.6144,0,0,2.41519,482.509,3003.5)">
            <path d="M0,7.313L10.356,7.313L5.178,-4.751L0,7.313ZM16.869,22.474L13.506,14.68L-3.149,14.68L-6.513,22.474L-16.388,22.474L1.175,-15.161L8.968,-15.161L26.584,22.474L16.869,22.474Z" style="fill:white;fill-rule:nonzero;"/>
        </g>
        <g transform="matrix(2.6144,0,0,2.41519,630.025,3012.78)">
            <path d="M0,-0.374L14.413,18.63L2.936,18.63L-5.552,6.779L-14.093,18.63L-25.463,18.63L-11.104,-0.374L-25.196,-19.004L-13.773,-19.004L-5.552,-7.474L2.775,-19.004L14.146,-19.004L0,-0.374Z" style="fill:white;fill-rule:nonzero;"/>
        </g>
        <g transform="matrix(2.6144,0,0,2.41519,-1570.85,-170.669)">
            <rect x="866.063" y="1299.09" width="9.822" height="37.634" style="fill:white;"/>
        </g>
        <g transform="matrix(2.6144,0,0,2.41519,822.061,2991.19)">
            <path d="M0,17.509C1.602,15.499 2.402,12.571 2.402,8.727C2.402,4.884 1.592,1.967 -0.027,-0.027C-1.646,-2.02 -3.862,-3.016 -6.673,-3.016C-9.521,-3.016 -11.744,-2.029 -13.346,-0.054C-14.947,1.921 -15.748,4.849 -15.748,8.727C-15.748,12.607 -14.947,15.543 -13.346,17.536C-11.744,19.529 -9.521,20.525 -6.673,20.525C-3.826,20.525 -1.602,19.52 0,17.509M-16.682,25.676C-19.511,24.093 -21.692,21.851 -23.222,18.95C-24.752,16.05 -25.517,12.643 -25.517,8.727C-25.517,4.813 -24.752,1.406 -23.222,-1.495C-21.692,-4.395 -19.511,-6.628 -16.682,-8.195C-13.853,-9.76 -10.517,-10.543 -6.673,-10.543C-2.83,-10.543 0.507,-9.76 3.336,-8.195C6.166,-6.628 8.336,-4.395 9.849,-1.495C11.361,1.406 12.118,4.813 12.118,8.727C12.118,12.643 11.352,16.05 9.822,18.95C8.292,21.851 6.112,24.093 3.283,25.676C0.454,27.26 -2.865,28.052 -6.673,28.052C-10.517,28.052 -13.853,27.26 -16.682,25.676" style="fill:white;fill-rule:nonzero;"/>
        </g>
        <g transform="matrix(2.6144,0,0,2.41519,969.436,3057.78)">
            <path d="M0,-37.634L7.58,-37.634L7.58,0L-0.961,0L-0.961,-19.751L-8.221,-6.245L-14.52,-6.245L-21.727,-19.431L-21.78,0L-30.321,0L-30.321,-37.634L-22.581,-37.634L-11.264,-16.228L0,-37.634Z" style="fill:white;fill-rule:nonzero;"/>
        </g>
        <g transform="matrix(2.6144,0,0,2.41519,1110.18,2971.52)">
            <path d="M0,33.791C-2.9,32.189 -5.124,29.93 -6.672,27.012C-8.221,24.094 -8.994,20.712 -8.994,16.869C-8.994,13.025 -8.221,9.654 -6.672,6.753C-5.124,3.853 -2.9,1.602 0,0C2.9,-1.602 6.308,-2.402 10.223,-2.402C12.679,-2.402 15.055,-2.028 17.35,-1.281C19.645,-0.534 21.521,0.463 22.981,1.708L19.938,8.648C16.843,6.478 13.675,5.392 10.437,5.392C7.376,5.392 5.036,6.353 3.417,8.274C1.797,10.196 0.988,13.061 0.988,16.869C0.988,20.677 1.797,23.551 3.417,25.49C5.036,27.43 7.376,28.399 10.437,28.399C13.675,28.399 16.843,27.314 19.938,25.144L22.981,32.083C21.521,33.329 19.645,34.325 17.35,35.072C15.055,35.819 12.679,36.193 10.223,36.193C6.308,36.193 2.9,35.393 0,33.791" style="fill:white;fill-rule:nonzero;"/>
        </g>
        <g transform="matrix(2.6144,0,0,2.41519,1204.73,2966.88)">
            <path d="M0,37.634L0,0L9.822,0L9.822,29.68L25.837,29.68L25.837,37.634L0,37.634Z" style="fill:white;fill-rule:nonzero;"/>
        </g>
        <g transform="matrix(2.6144,0,0,2.41519,1363.98,2991.19)">
            <path d="M0,17.509C1.601,15.499 2.401,12.571 2.401,8.727C2.401,4.884 1.592,1.967 -0.027,-0.027C-1.646,-2.02 -3.862,-3.016 -6.673,-3.016C-9.521,-3.016 -11.744,-2.029 -13.346,-0.054C-14.947,1.921 -15.748,4.849 -15.748,8.727C-15.748,12.607 -14.947,15.543 -13.346,17.536C-11.744,19.529 -9.521,20.525 -6.673,20.525C-3.827,20.525 -1.603,19.52 0,17.509M-16.683,25.676C-19.512,24.093 -21.692,21.851 -23.222,18.95C-24.753,16.05 -25.518,12.643 -25.518,8.727C-25.518,4.813 -24.753,1.406 -23.222,-1.495C-21.692,-4.395 -19.512,-6.628 -16.683,-8.195C-13.854,-9.76 -10.517,-10.543 -6.673,-10.543C-2.83,-10.543 0.507,-9.76 3.336,-8.195C6.165,-6.628 8.336,-4.395 9.849,-1.495C11.36,1.406 12.117,4.813 12.117,8.727C12.117,12.643 11.352,16.05 9.822,18.95C8.291,21.851 6.112,24.093 3.282,25.676C0.453,27.26 -2.865,28.052 -6.673,28.052C-10.517,28.052 -13.854,27.26 -16.683,25.676" style="fill:white;fill-rule:nonzero;"/>
        </g>
        <g transform="matrix(2.6144,0,0,2.41519,1442.34,2976.94)">
            <path d="M0,29.787C-2.829,27.011 -4.244,22.954 -4.244,17.616L-4.244,-4.164L5.365,-4.164L5.365,17.99C5.365,20.695 5.97,22.777 7.18,24.236C8.39,25.695 10.134,26.424 12.411,26.424C14.688,26.424 16.433,25.695 17.643,24.236C18.853,22.777 19.458,20.695 19.458,17.99L19.458,-4.164L29.12,-4.164L29.12,17.616C29.12,22.919 27.687,26.967 24.822,29.761C21.958,32.555 17.82,33.951 12.411,33.951C6.967,33.951 2.829,32.563 0,29.787" style="fill:white;fill-rule:nonzero;"/>
        </g>
        <g transform="matrix(2.6144,0,0,2.41519,1594.95,2985.96)">
            <path d="M0,21.834C3.701,21.834 6.459,20.926 8.274,19.111C10.089,17.296 10.996,14.556 10.996,10.89C10.996,7.226 10.089,4.494 8.274,2.696C6.459,0.9 3.701,0.001 0,0.001L-4.805,0.001L-4.805,21.834L0,21.834ZM-14.627,-7.9L0.693,-7.9C4.857,-7.9 8.442,-7.153 11.45,-5.658C14.457,-4.163 16.762,-2.001 18.363,0.828C19.965,3.657 20.766,7.012 20.766,10.89C20.766,14.806 19.973,18.177 18.39,21.006C16.806,23.835 14.511,25.998 11.504,27.492C8.496,28.987 4.893,29.734 0.693,29.734L-14.627,29.734L-14.627,-7.9Z" style="fill:white;fill-rule:nonzero;"/>
        </g>
        <g transform="matrix(2.6144,0,0,2.41519,1254.66,2690.88)">
            <path d="M0,-47.49C-14.59,-58.77 -34.26,-65.76 -59.08,-60.22C-97.11,-51.8 -114.79,-24.79 -121.35,-3.52C-149.16,-7.54 -166.87,3.77 -175.58,11.76C-191.79,26.61 -200.02,50.99 -195.56,71.01C-194.43,76.1 -192.93,80.6 -191.19,84.57C-217.44,86.57 -243.5,89.26 -269.34,92.63L-76.67,-140.12L0,-47.49Z" style="fill:white;fill-rule:nonzero;"/>
        </g>
        <g transform="matrix(2.6144,0,0,2.41519,1544.02,2551.48)">
            <path d="M0,150.17C-61.979,142.16 -125.18,138.03 -189.35,138.03C-221.97,138.03 -254.34,139.1 -286.42,141.21C-288.79,137.09 -290.89,131.97 -292.3,125.63C-298.01,99.94 -275.17,54.25 -220.92,71.38C-220.92,71.38 -218.06,22.84 -166.67,11.42C-115.27,0 -95.279,54.25 -95.279,54.25C-95.279,54.25 -38.18,37.12 -29.609,97.08C-29.609,97.08 -3.91,102.79 1.801,122.78C5.12,134.4 2.65,144.09 0,150.17" style="fill:white;fill-rule:nonzero;"/>
        </g>
    </g>
</svg>
