<?xml version="1.0" standalone="no"?>
<!DOCTYPE svg PUBLIC "-//W3C//DTD SVG 20010904//EN"
 "http://www.w3.org/TR/2001/REC-SVG-20010904/DTD/svg10.dtd">
<svg version="1.0" xmlns="http://www.w3.org/2000/svg"
 width="2422.000000pt" height="1414.000000pt" viewBox="0 0 2422.000000 1414.000000"
 preserveAspectRatio="xMidYMid meet">
<metadata>
Created by potrace 1.16, written by Peter Selinger 2001-2019
</metadata>
<g transform="translate(0.000000,1414.000000) scale(0.100000,-0.100000)"
fill="#000000" stroke="none">
<path d="M12037 13838 c-140 -156 -337 -375 -438 -488 -390 -436 -1027 -1147
-1124 -1255 -40 -44 -157 -174 -260 -290 -104 -115 -221 -246 -260 -290 -71
-79 -161 -180 -735 -820 -162 -181 -396 -442 -520 -580 -124 -138 -358 -399
-520 -580 -312 -348 -507 -565 -1130 -1260 -834 -929 -933 -1040 -1175 -1310
-137 -153 -333 -372 -435 -485 -102 -114 -295 -330 -430 -480 -135 -151 -328
-367 -430 -480 -102 -114 -315 -352 -475 -530 -487 -544 -1281 -1426 -1434
-1594 -81 -88 -168 -185 -196 -215 -27 -31 -76 -85 -110 -121 -97 -105 -145
-161 -145 -172 0 -11 38 -8 347 32 43 5 134 17 203 25 69 8 199 24 290 35 91
11 338 38 550 60 212 22 428 44 480 50 133 14 306 30 650 60 538 47 557 49
705 60 77 6 299 22 494 35 195 14 357 28 360 31 6 5 5 8 -69 183 -65 155 -150
432 -178 576 -33 178 -42 271 -42 451 0 180 13 315 51 514 10 52 15 75 38 168
14 55 90 293 103 322 6 14 14 34 18 45 17 47 31 78 100 220 166 341 353 603
635 890 32 32 159 146 210 187 96 79 276 208 289 208 3 0 24 13 48 29 77 51
351 195 448 234 25 10 54 22 65 27 236 98 581 184 875 219 300 35 483 39 770
14 107 -9 219 -17 249 -17 60 -1 48 -16 103 134 11 30 29 74 39 97 11 24 19
45 19 48 0 12 132 288 168 350 9 17 35 62 56 100 68 121 326 492 365 525 3 3
39 44 78 91 72 86 295 307 408 406 124 108 436 333 560 403 61 35 99 56 150
87 166 97 576 273 775 333 41 12 84 26 95 30 46 18 194 58 290 80 55 12 100
23 160 39 37 9 85 18 220 41 52 9 124 20 280 42 139 19 717 16 870 -5 298 -41
462 -77 700 -154 309 -99 629 -254 903 -435 168 -111 190 -116 102 -21 -25 26
-63 68 -84 93 -21 25 -62 70 -90 100 -28 30 -69 75 -90 100 -22 25 -79 88
-126 140 -160 175 -946 1047 -1465 1625 -427 476 -1011 1128 -1034 1153 -32
38 -434 486 -739 824 -172 191 -317 348 -322 348 -5 0 -124 -127 -263 -282z
m383 -1203 c7 -8 16 -12 22 -9 14 9 155 -64 177 -92 10 -13 25 -24 33 -24 8 0
30 -18 51 -40 20 -22 41 -40 48 -40 14 0 249 -235 249 -249 0 -5 34 -42 75
-83 41 -40 75 -79 75 -86 0 -7 14 -25 30 -39 17 -13 30 -31 30 -39 0 -9 5 -12
10 -9 6 3 10 -1 10 -10 0 -9 14 -28 30 -42 17 -13 30 -31 30 -39 0 -8 14 -27
30 -42 17 -16 30 -36 30 -45 0 -8 6 -17 14 -20 15 -6 46 -62 46 -82 0 -7 6
-15 14 -18 18 -7 70 -113 61 -126 -3 -6 1 -11 11 -11 11 0 15 -6 11 -20 -3
-11 1 -27 9 -34 8 -8 14 -31 14 -50 0 -20 5 -36 10 -36 6 0 10 -20 10 -45 0
-25 -4 -45 -10 -45 -5 0 -10 -16 -10 -36 0 -34 -18 -64 -39 -64 -6 0 -8 -7 -5
-15 8 -19 -42 -69 -61 -61 -8 3 -15 1 -15 -5 0 -18 -30 -41 -45 -35 -8 3 -15
0 -15 -7 0 -15 -56 -41 -70 -32 -5 3 -10 -1 -10 -11 0 -11 -6 -15 -20 -11 -11
3 -26 0 -33 -6 -21 -20 -67 -41 -74 -34 -3 4 -14 0 -24 -9 -10 -9 -25 -14 -33
-11 -8 3 -20 -1 -27 -9 -7 -9 -21 -13 -30 -11 -10 3 -24 -2 -30 -9 -7 -8 -19
-13 -28 -11 -9 2 -29 -3 -44 -10 -16 -8 -35 -12 -43 -9 -7 3 -20 -2 -29 -10
-9 -9 -22 -14 -30 -11 -7 3 -19 -1 -25 -8 -7 -8 -22 -14 -34 -14 -11 1 -46 -8
-76 -20 -30 -12 -60 -19 -67 -17 -6 3 -17 -2 -24 -10 -7 -9 -21 -13 -30 -11
-10 3 -23 -1 -30 -9 -6 -7 -21 -13 -33 -13 -23 1 -194 -58 -213 -73 -7 -6 -19
-8 -27 -5 -8 3 -20 -1 -27 -9 -7 -9 -21 -13 -31 -11 -10 3 -25 -1 -32 -9 -8
-8 -19 -14 -25 -14 -6 0 -31 -9 -56 -21 -24 -11 -48 -18 -54 -15 -5 3 -15 1
-23 -6 -16 -16 -51 -33 -103 -50 -22 -7 -42 -15 -45 -18 -12 -13 -89 -48 -132
-60 -27 -8 -48 -18 -48 -22 0 -4 -9 -8 -20 -8 -11 0 -20 -4 -20 -10 0 -5 -9
-10 -20 -10 -11 0 -20 -4 -20 -10 0 -5 -9 -10 -20 -10 -11 0 -20 -4 -20 -10 0
-5 -9 -10 -20 -10 -11 0 -20 -4 -20 -8 0 -4 -19 -18 -42 -30 -24 -12 -56 -31
-73 -41 -16 -11 -38 -20 -47 -20 -10 -1 -18 -5 -18 -11 0 -5 -8 -10 -18 -10
-9 0 -23 -9 -30 -20 -7 -11 -21 -20 -31 -20 -11 0 -21 -3 -23 -7 -5 -13 -66
-53 -80 -53 -7 0 -19 -9 -26 -20 -7 -11 -20 -20 -30 -20 -9 0 -23 -9 -30 -20
-7 -11 -20 -20 -30 -20 -9 0 -23 -9 -30 -20 -7 -11 -20 -20 -30 -20 -9 0 -23
-9 -30 -20 -7 -11 -20 -20 -30 -20 -9 0 -28 -14 -41 -30 -13 -17 -31 -30 -40
-30 -9 0 -27 -14 -40 -30 -13 -17 -30 -30 -37 -30 -8 0 -41 -27 -72 -60 -32
-33 -63 -60 -69 -60 -15 0 -463 -448 -463 -462 0 -7 -22 -33 -50 -60 -27 -26
-50 -53 -50 -60 0 -6 -18 -29 -40 -50 -22 -22 -40 -44 -40 -50 0 -5 -22 -32
-50 -59 -27 -27 -50 -55 -50 -61 0 -7 -23 -35 -50 -61 -28 -27 -50 -53 -50
-59 0 -14 -224 -238 -238 -238 -7 0 -24 -12 -39 -28 -16 -15 -40 -34 -55 -41
-16 -8 -28 -18 -28 -23 0 -4 -6 -8 -13 -8 -7 0 -23 -9 -36 -21 -12 -11 -29
-18 -37 -15 -8 3 -14 -1 -14 -10 0 -11 -6 -15 -20 -11 -11 3 -22 1 -25 -4 -11
-16 -75 -41 -95 -36 -14 3 -20 0 -20 -10 0 -11 -8 -14 -30 -11 -20 3 -30 0
-30 -9 0 -9 -13 -13 -40 -13 -22 0 -40 -4 -40 -10 0 -6 -68 -10 -185 -10 -117
0 -185 4 -185 10 0 6 -11 10 -25 10 -29 0 -75 40 -75 65 0 8 -4 15 -10 15 -6
0 -10 32 -10 75 0 43 4 75 10 75 6 0 10 14 10 30 0 17 5 30 10 30 6 0 10 9 10
20 0 11 6 20 14 20 9 0 12 7 9 20 -4 14 0 20 10 20 10 0 13 6 10 20 -4 14 0
20 11 20 9 0 13 6 10 14 -3 8 4 25 15 37 12 13 21 29 21 36 0 7 4 13 8 13 5 0
15 12 23 28 7 15 26 39 41 55 16 15 28 32 28 39 0 6 14 24 30 40 17 15 30 34
30 42 0 8 14 26 30 39 17 14 30 31 30 38 0 7 18 30 40 51 22 22 40 44 40 50 0
5 23 32 50 59 28 27 50 55 50 63 0 7 27 38 60 69 33 30 60 61 60 69 0 8 23 35
50 61 28 26 50 52 50 59 0 7 32 43 70 80 39 37 70 73 70 80 0 7 32 43 70 80
39 37 70 73 70 79 0 7 36 47 80 91 44 43 80 84 80 90 0 6 32 42 70 81 39 38
70 74 70 80 0 6 36 46 80 89 44 44 80 84 80 91 0 7 32 43 70 80 39 37 70 73
70 79 0 6 27 37 60 70 33 33 60 65 60 72 0 6 36 46 80 90 44 43 80 84 80 90 0
7 36 47 80 89 44 43 80 83 80 90 0 6 32 43 70 81 39 37 70 73 70 80 0 6 36 46
80 90 44 43 80 84 80 91 0 6 36 47 80 89 44 43 80 84 80 90 0 7 36 48 80 90
44 43 80 83 80 90 0 6 50 60 110 120 61 60 110 114 110 120 0 16 345 356 360
356 7 0 28 18 47 40 20 22 43 40 52 40 9 0 27 14 40 30 13 17 31 30 41 30 10
0 20 6 23 14 7 17 113 70 125 62 6 -3 15 1 22 9 10 12 38 15 125 15 87 0 115
-3 125 -15z"/>
<path d="M8570 8420 c0 -5 5 -10 11 -10 5 0 7 5 4 10 -3 6 -8 10 -11 10 -2 0
-4 -4 -4 -10z"/>
<path d="M8606 8381 c-3 -5 3 -11 15 -14 16 -4 18 -3 8 9 -13 16 -16 17 -23 5z"/>
<path d="M13835 9659 c-145 -15 -259 -30 -305 -39 -25 -4 -72 -13 -105 -19
-33 -7 -78 -16 -100 -21 -105 -24 -222 -52 -245 -60 -14 -4 -45 -13 -70 -20
-109 -31 -295 -95 -365 -125 -16 -7 -61 -26 -100 -41 -71 -29 -281 -133 -390
-194 -104 -58 -391 -256 -435 -300 -3 -3 -34 -29 -70 -59 -219 -182 -531 -559
-682 -826 -24 -41 -163 -322 -181 -365 -88 -205 -157 -433 -198 -650 -5 -30
-14 -74 -19 -98 -6 -23 -10 -64 -10 -91 0 -53 -16 -69 -50 -51 -10 6 -30 10
-44 10 -14 0 -27 4 -30 9 -3 5 -20 11 -38 14 -18 3 -51 10 -73 17 -22 6 -60
16 -85 21 -25 5 -65 13 -90 19 -103 23 -183 36 -365 61 -124 17 -623 23 -740
10 -179 -21 -307 -45 -447 -82 -430 -115 -815 -334 -1113 -634 -139 -139 -321
-379 -398 -525 -89 -168 -105 -201 -136 -280 -18 -47 -37 -94 -41 -105 -44
-109 -98 -319 -121 -475 -18 -113 -18 -441 -1 -555 37 -246 166 -606 298 -831
26 -44 26 -44 81 -44 30 0 165 7 301 15 136 8 333 19 437 25 105 6 269 15 365
20 96 5 312 14 480 20 168 6 402 15 520 20 208 9 602 20 1515 40 569 13 2287
13 2840 0 940 -22 1280 -31 1505 -40 129 -5 366 -14 525 -20 160 -6 371 -15
470 -20 183 -10 420 -22 780 -40 193 -10 342 -19 658 -40 81 -6 213 -14 295
-20 81 -5 219 -14 307 -20 163 -11 330 -23 535 -40 63 -5 174 -14 245 -20 72
-6 180 -15 240 -20 61 -5 171 -14 245 -20 137 -11 279 -23 450 -40 52 -5 145
-14 205 -20 123 -12 273 -26 415 -40 52 -5 145 -14 205 -20 123 -12 260 -26
380 -41 44 -5 276 -32 515 -59 239 -28 451 -53 472 -56 35 -6 37 -5 58 42 97
215 152 478 151 728 -1 178 -13 282 -52 437 -72 289 -185 488 -398 699 -106
104 -170 156 -307 248 -219 146 -553 293 -844 372 -127 35 -123 32 -136 86 -6
27 -17 83 -24 124 -46 268 -165 615 -289 839 -23 41 -41 76 -41 78 0 2 -31 50
-69 106 -260 386 -602 651 -1054 817 -107 40 -380 107 -507 125 -356 50 -764
49 -1080 -5 -30 -5 -82 -14 -115 -19 -33 -6 -85 -15 -115 -21 -117 -24 -135
-24 -146 2 -21 43 -121 243 -156 308 -243 454 -655 927 -1072 1230 -464 338
-909 507 -1501 570 -114 12 -422 11 -540 -1z m397 -727 c37 -1 78 -6 90 -13
13 -7 40 -12 60 -10 21 1 50 -5 65 -12 16 -8 33 -12 40 -10 6 2 25 -3 41 -11
16 -8 32 -13 35 -10 6 6 171 -48 234 -77 24 -10 50 -19 58 -19 8 0 15 -4 15
-10 0 -5 9 -10 20 -10 11 0 20 -4 20 -10 0 -5 9 -10 20 -10 11 0 20 -4 20 -10
0 -5 6 -10 12 -10 22 0 159 -72 165 -86 3 -8 11 -14 18 -14 20 0 76 -31 82
-46 3 -8 14 -14 24 -14 10 0 24 -9 31 -20 7 -11 20 -20 30 -20 9 0 28 -13 41
-30 14 -16 32 -30 39 -30 8 0 30 -18 51 -40 20 -22 43 -40 50 -40 8 0 44 -31
81 -70 37 -38 73 -70 78 -70 13 0 358 -343 358 -356 0 -13 271 -284 283 -284
5 0 48 -38 95 -85 47 -47 89 -85 94 -85 4 0 24 -16 44 -35 19 -19 41 -35 48
-35 7 0 23 -12 37 -26 13 -14 54 -46 92 -70 37 -25 67 -49 67 -54 0 -6 7 -10
15 -10 16 0 77 -39 83 -52 2 -5 11 -8 20 -9 10 0 31 -9 47 -20 51 -32 196 -99
216 -99 6 0 17 -6 25 -14 7 -8 22 -12 32 -9 10 2 24 -2 31 -11 7 -8 19 -12 26
-10 7 3 24 0 37 -7 13 -7 36 -12 51 -11 15 1 38 -3 50 -10 12 -6 39 -11 59 -9
21 1 48 -4 60 -10 13 -7 42 -11 65 -10 24 1 62 -3 85 -10 24 -6 68 -11 99 -10
32 1 77 -3 100 -10 24 -6 65 -11 90 -10 26 1 66 -3 90 -10 24 -7 58 -11 76
-10 17 1 42 -3 55 -10 13 -7 40 -12 60 -10 21 1 50 -5 65 -12 16 -8 33 -12 40
-10 6 2 25 -3 41 -11 16 -8 32 -13 35 -10 3 3 32 -4 64 -16 32 -12 65 -22 73
-22 8 0 34 -8 57 -19 24 -10 48 -19 54 -19 6 0 17 -7 26 -15 8 -8 19 -12 24
-9 13 8 199 -85 206 -102 3 -8 12 -14 19 -14 16 0 70 -35 95 -62 9 -10 23 -18
32 -18 8 0 27 -13 40 -30 14 -16 31 -30 37 -30 16 0 240 -223 240 -239 0 -6
18 -28 40 -48 22 -21 40 -43 40 -51 0 -7 14 -25 30 -39 17 -13 30 -32 30 -41
0 -10 9 -23 20 -30 11 -7 20 -20 20 -30 0 -9 9 -23 20 -30 11 -7 20 -21 20
-31 0 -10 6 -21 14 -24 14 -6 46 -61 46 -81 0 -6 9 -17 20 -24 11 -7 20 -21
20 -31 0 -11 3 -21 8 -23 12 -5 52 -66 52 -80 0 -7 9 -19 20 -26 11 -7 20 -20
20 -30 0 -9 9 -23 20 -30 11 -7 20 -20 20 -30 0 -9 9 -23 20 -30 11 -7 20 -19
20 -27 0 -9 9 -26 20 -38 81 -92 100 -116 100 -126 0 -7 14 -24 31 -39 18 -14
39 -38 48 -53 9 -15 42 -55 74 -88 31 -34 57 -65 57 -70 0 -4 128 -136 285
-293 157 -157 285 -290 285 -296 0 -5 18 -28 41 -52 23 -24 38 -48 35 -56 -3
-8 1 -14 10 -14 11 0 15 -6 11 -20 -3 -13 0 -20 9 -20 8 0 14 -9 14 -20 0 -11
5 -20 10 -20 6 0 10 -13 10 -30 0 -16 5 -30 10 -30 6 0 10 -25 10 -55 0 -30
-4 -55 -10 -55 -5 0 -10 -7 -10 -15 0 -23 -89 -108 -106 -101 -8 3 -14 -1 -14
-10 0 -11 -6 -15 -20 -11 -14 3 -20 0 -20 -10 0 -11 -8 -14 -30 -11 -21 3 -30
0 -30 -10 0 -10 -9 -13 -30 -10 -21 3 -30 0 -30 -9 0 -11 -14 -14 -60 -12 -36
2 -65 -2 -72 -9 -16 -16 -586 -17 -641 -1 -22 6 -85 12 -140 13 -56 2 -118 5
-137 9 -19 3 -78 8 -130 10 -52 2 -115 6 -140 10 -25 3 -83 7 -130 10 -47 2
-101 7 -120 10 -19 3 -82 8 -140 10 -58 2 -121 6 -140 10 -19 3 -82 8 -140 10
-58 2 -121 6 -140 10 -19 3 -82 8 -140 10 -58 2 -121 6 -140 10 -19 3 -82 8
-140 10 -58 2 -121 7 -140 10 -19 4 -81 6 -137 6 -56 0 -121 5 -144 11 -23 6
-91 13 -153 14 -61 1 -127 5 -146 9 -19 3 -91 8 -160 10 -69 2 -141 6 -160 10
-19 3 -96 8 -170 10 -74 2 -155 6 -180 9 -25 3 -115 8 -200 10 -85 3 -175 7
-200 10 -25 3 -124 8 -220 10 -96 3 -200 7 -230 10 -30 3 -147 7 -260 10 -113
2 -230 7 -260 10 -30 3 -156 7 -280 10 -124 2 -254 7 -290 10 -36 3 -216 7
-400 9 -184 3 -382 7 -440 10 -367 18 -3165 18 -3610 0 -69 -3 -249 -7 -400
-10 -151 -2 -313 -7 -360 -10 -47 -2 -182 -7 -300 -10 -118 -2 -260 -7 -315
-9 -273 -13 -309 -13 -335 -2 -15 6 -87 12 -161 13 -74 2 -145 6 -159 11 -14
4 -42 7 -63 6 -22 0 -46 5 -54 12 -9 7 -28 11 -43 10 -14 -2 -32 4 -39 12 -7
8 -19 12 -27 9 -8 -3 -23 2 -33 11 -10 9 -21 13 -24 9 -8 -7 -93 34 -121 59
-11 10 -24 18 -28 18 -15 0 -118 109 -118 125 0 8 -3 15 -8 15 -11 0 -34 58
-27 70 3 5 -1 10 -11 10 -12 0 -15 7 -12 30 3 18 -1 35 -9 41 -17 15 -19 260
-1 292 6 12 11 36 10 53 -2 17 4 37 12 43 8 7 13 18 10 25 -3 8 4 30 15 50 12
20 21 42 21 49 0 21 92 199 106 204 8 3 14 14 14 24 0 10 9 24 20 31 11 7 20
20 20 30 0 9 14 28 30 41 17 14 30 31 30 38 0 15 223 239 239 239 6 0 29 18
50 40 21 22 42 40 48 40 5 0 18 8 29 18 27 23 61 42 76 42 7 0 19 9 26 20 7
11 21 20 31 20 11 0 21 3 23 8 4 10 87 52 104 52 8 0 14 3 14 8 0 11 58 34 69
28 5 -4 15 -1 23 6 21 21 67 42 75 35 3 -4 14 0 24 9 10 9 25 14 33 11 8 -3
20 1 27 9 7 8 25 14 39 12 15 -1 34 3 43 10 8 7 28 12 43 10 16 -1 39 4 51 10
12 7 35 11 50 10 15 -1 38 4 51 11 12 6 44 11 70 10 26 -1 57 3 70 10 13 7 66
12 130 13 59 0 150 3 202 6 52 3 191 7 307 9 117 1 231 7 253 13 22 6 54 10
72 9 18 -2 42 2 54 9 11 6 29 11 40 11 18 -1 75 18 139 45 17 7 49 21 73 31
23 10 47 24 53 32 6 7 20 13 29 13 10 0 20 3 22 8 2 4 28 24 58 44 30 20 66
48 79 62 14 14 30 26 37 26 16 0 319 306 344 347 11 18 29 38 40 45 11 7 20
21 20 30 0 10 9 23 20 30 11 7 20 21 20 30 0 10 9 23 20 30 11 7 20 19 20 26
0 14 40 75 53 80 4 2 7 11 8 20 0 10 9 31 20 47 10 17 24 40 30 53 7 12 16 22
21 22 4 0 8 6 8 13 0 24 79 167 93 167 4 0 7 6 7 13 0 22 31 78 46 84 8 3 14
11 14 18 0 20 31 76 46 82 8 3 14 14 14 24 0 10 9 24 20 31 11 7 20 20 20 30
0 9 14 28 30 41 17 14 30 32 30 40 0 9 14 27 30 40 17 14 30 32 30 39 0 7 23
35 50 61 28 26 50 52 50 58 0 14 224 239 238 239 6 0 32 23 58 50 26 28 54 50
63 50 9 0 27 14 40 30 13 17 31 30 40 30 9 0 22 9 29 20 7 11 20 20 30 20 9 0
23 9 30 20 7 11 20 20 30 20 9 0 23 9 30 20 7 11 21 20 32 20 11 0 20 5 20 10
0 6 8 10 18 10 9 0 23 9 30 20 7 11 21 20 32 20 11 0 20 3 20 8 0 8 49 32 67
32 7 0 13 5 13 10 0 6 9 10 20 10 11 0 20 5 20 10 0 6 9 10 20 10 11 0 20 5
20 10 0 6 9 10 20 10 11 0 20 3 20 8 0 7 21 17 90 42 19 7 39 17 45 22 5 4 15
8 22 8 7 0 34 10 58 21 25 12 49 19 52 15 4 -3 14 1 24 10 10 9 24 14 31 11 7
-2 26 2 41 10 16 8 35 12 42 9 8 -3 19 2 26 10 7 8 19 14 28 12 9 -1 31 4 49
11 18 8 35 11 39 8 3 -4 19 1 35 9 15 8 47 14 69 12 24 -1 44 3 48 11 5 7 26
11 57 10 27 -1 59 3 72 10 14 7 60 11 123 10 55 -1 103 2 107 5 3 4 61 5 127
3 66 -3 150 -5 187 -5z"/>
<path d="M20905 4080 c-3 -5 -1 -10 4 -10 6 0 11 5 11 10 0 6 -2 10 -4 10 -3
0 -8 -4 -11 -10z"/>
<path d="M20885 4040 c-3 -5 -1 -10 4 -10 6 0 11 5 11 10 0 6 -2 10 -4 10 -3
0 -8 -4 -11 -10z"/>
<path d="M7080 1845 c-385 -72 -635 -291 -732 -640 -19 -70 -22 -105 -22 -275
0 -170 3 -205 22 -275 68 -247 219 -434 438 -543 97 -49 183 -75 338 -102 74
-13 289 -13 353 -1 26 6 75 15 108 22 82 15 224 71 298 116 83 51 208 172 255
247 115 181 162 397 141 637 -15 175 -68 336 -149 453 -40 59 -144 164 -201
203 -109 75 -261 135 -408 159 -103 16 -349 16 -441 -1z m388 -377 c223 -71
341 -323 303 -647 -17 -146 -56 -243 -127 -321 -91 -97 -194 -140 -340 -140
-247 0 -408 135 -460 386 -20 96 -15 320 10 406 44 160 145 274 281 318 97 32
231 31 333 -2z"/>
<path d="M13740 1848 c-494 -83 -790 -427 -790 -918 0 -387 182 -684 509 -833
269 -122 647 -129 947 -18 83 30 203 97 210 116 8 19 -143 325 -160 325 -8 0
-37 -13 -63 -28 -282 -165 -626 -157 -785 17 -92 100 -130 223 -131 417 0 301
105 472 328 535 63 18 260 18 335 0 73 -17 203 -68 263 -103 26 -15 52 -28 58
-28 10 0 159 303 159 325 0 16 -111 88 -170 110 -25 9 -54 21 -65 25 -55 22
-81 29 -220 55 -89 17 -334 18 -425 3z"/>
<path d="M17930 1845 c-320 -59 -538 -213 -668 -470 -124 -248 -124 -642 0
-890 133 -263 365 -418 709 -474 37 -6 119 -11 183 -11 476 0 827 233 941 624
57 197 54 446 -7 636 -100 315 -360 527 -717 586 -103 16 -349 16 -441 -1z
m377 -372 c68 -19 167 -85 205 -137 42 -56 83 -149 99 -221 17 -81 17 -294 0
-375 -38 -177 -136 -297 -291 -358 -58 -23 -225 -27 -300 -8 -235 60 -352 267
-337 596 3 69 12 148 20 177 68 242 242 363 497 345 30 -2 79 -11 107 -19z"/>
<path d="M456 930 l-457 -910 254 0 255 0 25 53 c14 28 50 106 81 172 31 66
60 127 64 135 8 13 68 15 428 18 230 1 429 0 440 -3 14 -3 29 -22 42 -54 12
-26 51 -110 86 -185 l65 -136 251 0 c139 0 250 4 248 8 -1 4 -95 190 -208 412
-113 223 -317 628 -455 900 l-250 495 -206 3 -207 2 -456 -910z m734 267 c32
-68 69 -148 83 -178 14 -30 46 -98 71 -152 25 -54 46 -102 46 -107 0 -11 -522
-15 -532 -4 -3 3 0 17 7 32 18 36 127 268 195 414 30 65 59 118 63 118 5 0 35
-55 67 -123z"/>
<path d="M2497 1832 c-3 -4 34 -54 82 -112 437 -526 634 -765 638 -776 3 -8
-13 -35 -34 -61 -89 -109 -687 -839 -696 -850 -7 -10 51 -13 286 -13 l295 0
218 280 c119 154 223 280 230 280 7 0 52 -51 101 -114 48 -63 146 -189 216
-280 l128 -166 295 0 c162 0 294 3 294 8 0 4 -75 97 -166 207 -499 603 -569
688 -572 697 -4 10 -1 14 418 518 162 195 298 357 302 358 5 2 8 10 8 18 0 12
-47 14 -294 14 l-295 0 -212 -275 c-117 -152 -218 -274 -225 -273 -7 2 -81 93
-164 203 -84 110 -177 233 -208 273 l-55 72 -293 0 c-161 0 -295 -3 -297 -8z"/>
<path d="M5077 1833 c-9 -8 -9 -559 0 -1265 l6 -548 254 0 253 0 2 870 c1 479
2 887 3 908 l0 37 -256 3 c-140 1 -258 -1 -262 -5z"/>
<path d="M9017 1832 c-3 -4 -3 -414 0 -910 l6 -902 219 0 218 0 0 460 c0 293
4 460 10 460 5 0 16 -10 23 -22 21 -34 193 -326 277 -471 l75 -127 165 2 164
3 107 185 c225 392 257 445 265 442 5 -1 9 -210 9 -465 l0 -462 223 -3 222 -2
0 910 0 910 -200 0 -199 0 -24 -42 c-14 -24 -78 -137 -142 -253 -132 -236
-283 -505 -359 -639 -28 -49 -56 -91 -63 -93 -6 -2 -17 9 -25 24 -8 15 -75
136 -150 268 -75 132 -199 350 -275 485 l-138 245 -202 3 c-111 1 -204 -1
-206 -6z"/>
<path d="M15317 1833 c-9 -8 -9 -944 0 -1436 l6 -377 674 0 673 0 -2 187 -3
188 -418 3 -418 2 1 718 2 717 -254 3 c-140 1 -257 -1 -261 -5z"/>
<path d="M19853 1228 c4 -596 4 -615 26 -692 47 -166 131 -293 255 -380 70
-50 184 -102 253 -116 27 -6 73 -15 103 -22 32 -7 130 -12 235 -12 146 1 198
5 278 22 295 65 484 232 557 494 33 119 41 291 38 818 l-3 495 -250 0 -250 0
-5 -600 c-5 -653 -3 -625 -64 -730 -15 -25 -46 -60 -69 -76 -77 -56 -102 -63
-232 -63 -105 -1 -126 2 -172 23 -61 27 -136 103 -162 164 -40 93 -44 165 -40
737 l4 545 -253 3 -253 2 4 -612z"/>
<path d="M22365 1828 c-3 -7 -4 -416 -3 -908 l3 -895 390 -3 c642 -5 824 22
1058 156 207 119 355 345 382 585 4 31 11 57 16 57 5 0 9 49 9 110 0 61 -4
110 -9 110 -5 0 -12 28 -16 61 -4 34 -18 95 -31 136 -105 331 -382 536 -794
588 -154 20 -998 22 -1005 3z m978 -397 c250 -65 359 -218 358 -506 0 -182
-35 -286 -129 -382 -101 -105 -243 -145 -521 -147 l-176 -1 -3 520 c-1 286 0
526 3 534 9 22 364 9 468 -18z"/>
</g>
</svg>
